<?xml version="1.0" standalone="no"?>
<!DOCTYPE svg PUBLIC "-//W3C//DTD SVG 20010904//EN"
 "http://www.w3.org/TR/2001/REC-SVG-20010904/DTD/svg10.dtd">
<svg version="1.0" xmlns="http://www.w3.org/2000/svg"
 width="860.000000pt" height="860.000000pt" viewBox="0 0 860.000000 860.000000"
 preserveAspectRatio="xMidYMid meet">

<g transform="translate(0.000000,860.000000) scale(0.100000,-0.100000)"
fill="#000000" stroke="none">
<path d="M1805 6542 c-89 -43 -175 -101 -175 -118 0 -9 44 -66 98 -127 53 -62
115 -136 137 -164 22 -29 45 -52 52 -53 18 0 27 20 14 33 -6 6 -11 40 -11 76
0 37 -5 116 -11 176 -6 61 -12 130 -13 155 -3 56 -13 59 -91 22z m55 -47 c0
-16 -5 -23 -13 -19 -20 7 -107 -55 -107 -77 0 -33 40 -22 82 21 l38 41 0 -31
c0 -22 -9 -39 -35 -61 -35 -31 -46 -59 -23 -59 6 0 22 10 34 21 l23 21 6 -34
c4 -18 5 -52 3 -74 l-3 -41 -106 110 -105 109 99 49 c55 27 102 49 104 49 1 0
3 -11 3 -25z"/>
<path d="M1400 6450 c0 -5 -12 -26 -26 -47 -53 -78 -154 -296 -154 -334 0 -26
19 -33 39 -15 15 14 22 14 66 0 167 -50 358 -95 368 -85 5 5 23 7 38 4 21 -4
29 -2 29 9 0 19 -71 122 -206 298 -60 78 -113 150 -119 161 -10 20 -35 26 -35
9z m36 -61 c7 -16 1 -38 -29 -97 -41 -84 -52 -137 -27 -137 10 0 26 30 46 90
17 50 35 88 40 86 9 -3 115 -150 203 -280 36 -52 38 -59 19 -51 -13 6 -106 30
-208 54 -101 24 -186 48 -187 53 -5 13 117 303 127 303 4 0 11 -9 16 -21z"/>
<path d="M1486 6249 c-19 -30 -43 -135 -33 -145 15 -15 36 20 47 81 15 78 10
100 -14 64z"/>
<path d="M4086 6270 c-117 -35 -129 -206 -19 -261 l32 -16 -147 -209 c-81
-115 -187 -266 -236 -336 -50 -71 -95 -128 -100 -127 -6 0 -99 31 -206 69
-138 48 -194 72 -191 81 10 36 3 109 -13 133 -57 88 -195 86 -241 -3 -34 -67
-7 -168 52 -193 16 -7 30 -13 31 -14 6 -4 -412 -574 -420 -574 -7 0 -665 336
-676 345 -1 1 3 22 9 46 11 39 9 50 -9 92 -17 39 -29 51 -67 68 -148 65 -271
-123 -150 -230 33 -28 84 -46 114 -39 10 2 139 -309 428 -1027 393 -978 416
-1038 449 -1185 21 -92 41 -160 50 -167 12 -9 65 5 252 68 364 122 572 169
1292 288 530 88 1105 165 1355 181 88 5 237 7 331 4 119 -5 173 -4 178 4 3 6
24 134 46 284 22 150 98 678 169 1173 72 495 136 938 143 985 13 84 13 85 41
82 126 -15 205 143 118 237 -58 62 -154 60 -211 -6 -29 -33 -31 -40 -28 -92 2
-31 7 -63 11 -72 6 -11 -48 -62 -223 -207 -126 -106 -232 -192 -236 -192 -9 0
-254 220 -254 228 0 4 9 13 21 20 47 30 63 124 29 179 -28 46 -65 67 -120 67
-107 0 -168 -98 -125 -201 9 -20 12 -40 8 -43 -5 -4 -170 -94 -368 -199 -198
-106 -365 -199 -371 -207 -9 -11 -73 62 -311 354 l-301 367 20 28 c50 70 26
164 -52 205 -47 24 -59 25 -104 12z m22 -42 c30 -30 -4 -77 -41 -57 -29 17
-15 69 18 69 6 0 16 -5 23 -12z m2470 -224 c4 -25 -29 -57 -51 -48 -24 9 -29
35 -10 56 22 24 57 20 61 -8z m-1888 -639 c360 -440 517 -625 531 -625 11 0
286 221 640 516 341 284 623 513 626 510 3 -3 -43 -337 -101 -743 -59 -406
-127 -882 -153 -1058 -25 -176 -46 -321 -47 -321 0 -1 -53 12 -116 28 -114 29
-117 30 -330 25 -188 -5 -1067 -57 -1220 -72 -560 -59 -1061 -186 -1532 -390
-133 -58 -248 -106 -256 -108 -9 -1 -143 322 -412 991 -219 545 -395 992 -391
992 3 0 269 -135 590 -301 320 -165 589 -298 596 -295 15 5 99 123 865 1213
102 145 188 263 191 263 4 0 237 -281 519 -625z m990 505 c0 -24 -26 -38 -42
-22 -16 16 -2 42 22 42 13 0 20 -7 20 -20z m99 -279 c202 -184 187 -168 171
-184 -42 -43 -716 -597 -725 -596 -5 0 -92 101 -191 223 l-181 223 391 211
c335 181 395 211 421 206 18 -4 64 -37 114 -83z m-2734 -27 c0 -10 -8 -20 -17
-22 -18 -3 -26 27 -11 42 12 11 28 0 28 -20z m327 -220 c106 -36 197 -70 201
-74 6 -5 -430 -646 -470 -690 -9 -9 -413 205 -411 217 2 6 98 142 213 302 191
264 227 306 267 310 3 1 93 -29 200 -65z m-1567 -60 c29 -29 -5 -104 -46 -104
-23 0 -49 37 -42 59 9 24 45 61 59 61 7 0 20 -7 29 -16z m4255 -1669 c58 -15
108 -30 111 -34 4 -3 -2 -60 -12 -126 -10 -66 -18 -123 -18 -126 -1 -4 -130
-9 -288 -12 -297 -4 -348 -9 -898 -82 -336 -45 -1153 -184 -1410 -241 -174
-39 -323 -79 -490 -134 -132 -44 -242 -76 -246 -72 -13 15 -62 273 -53 280 5
5 70 35 144 66 74 32 200 89 280 126 147 69 322 129 440 150 36 6 121 24 190
40 342 80 590 111 1210 150 267 17 539 35 605 40 192 13 315 6 435 -25z"/>
<path d="M4073 5579 c-18 -5 -33 -12 -33 -14 0 -11 58 -4 76 10 23 17 7 18
-43 4z"/>
<path d="M4085 5483 c-11 -3 -24 -9 -29 -14 -17 -15 39 -10 60 6 20 15 10 18
-31 8z"/>
<path d="M6053 4979 c-20 -26 -126 -259 -120 -265 23 -23 64 43 112 178 27 76
31 114 8 87z"/>
<path d="M6068 4785 c-22 -29 -24 -67 -4 -59 19 7 41 63 30 74 -5 5 -16 -2
-26 -15z"/>
<path d="M6073 4489 c-17 -70 -16 -89 1 -89 19 0 26 44 18 99 l-7 44 -12 -54z"/>
<path d="M4238 4304 c-67 -58 -87 -101 -88 -180 0 -77 30 -137 89 -179 37 -26
52 -30 106 -30 54 0 68 4 91 25 41 39 64 96 64 168 0 71 -14 112 -56 161 -26
31 -112 81 -141 81 -7 0 -36 -21 -65 -46z m2 -152 c0 -10 -3 -22 -7 -25 -10
-11 -32 13 -26 29 8 20 33 17 33 -4z m45 -120 c29 -61 31 -62 64 -57 19 2 44
14 57 26 13 13 24 18 24 11 0 -19 -52 -52 -84 -52 -46 0 -78 20 -103 65 -28
49 -30 78 -6 73 10 -2 31 -31 48 -66z"/>
<path d="M2453 4238 c-26 -13 -30 -26 -9 -34 15 -6 70 19 81 36 8 13 -44 12
-72 -2z"/>
<path d="M2327 4184 c-13 -13 -7 -24 14 -24 11 0 19 5 17 12 -5 14 -22 21 -31
12z"/>
<path d="M2410 4060 c0 -5 7 -10 16 -10 8 0 12 5 9 10 -3 6 -10 10 -16 10 -5
0 -9 -4 -9 -10z"/>
<path d="M3970 4050 c-11 -7 -12 -12 -3 -21 14 -14 53 -2 53 17 0 16 -28 18
-50 4z"/>
<path d="M2518 3984 c-16 -8 -28 -17 -28 -19 0 -12 30 -3 51 15 28 23 15 25
-23 4z"/>
<path d="M3995 3941 c-10 -17 12 -21 25 -6 10 12 10 15 -3 15 -9 0 -18 -4 -22
-9z"/>
<path d="M4522 3924 c-24 -14 -41 -28 -38 -31 8 -8 92 26 106 43 21 24 -19 17
-68 -12z"/>
<path d="M4539 3850 c-19 -15 -20 -19 -8 -20 9 0 27 9 40 20 19 15 20 19 8 20
-9 0 -27 -9 -40 -20z"/>
<path d="M4580 3830 c-13 -8 -13 -10 2 -10 9 0 20 5 23 10 8 13 -5 13 -25 0z"/>
<path d="M2550 3821 c0 -6 4 -13 10 -16 6 -3 7 1 4 9 -7 18 -14 21 -14 7z"/>
<path d="M2580 3745 c0 -21 81 -202 113 -252 27 -43 47 -55 47 -29 0 8 -16 43
-36 78 -20 34 -54 98 -75 141 -39 77 -49 90 -49 62z"/>
<path d="M2736 3688 c10 -35 43 -96 54 -103 16 -10 12 1 -20 65 -31 61 -47 79
-34 38z"/>
<path d="M1205 5753 c-11 -2 -31 -6 -44 -9 -16 -3 -21 -8 -13 -13 8 -5 5 -28
-13 -84 -26 -80 -33 -181 -14 -192 5 -4 18 0 28 9 11 10 36 16 67 16 129 1
383 51 585 116 75 24 153 44 173 44 23 0 36 5 36 13 0 22 -33 45 -60 44 -14 0
-81 9 -150 21 -69 12 -174 26 -235 32 -107 10 -320 12 -360 3z m79 -50 c-4
-16 -13 -50 -20 -78 -13 -53 -11 -65 12 -65 20 0 34 42 38 109 l3 56 43 -2
c23 -1 44 -4 47 -6 2 -3 -3 -35 -12 -72 -16 -69 -14 -85 10 -85 20 0 28 40 23
105 -5 60 -3 62 59 49 l29 -6 -13 -61 c-7 -34 -11 -67 -8 -74 5 -15 -3 -17
-135 -42 -146 -28 -188 -33 -198 -27 -10 6 1 125 18 185 l11 41 50 0 c49 0 49
0 43 -27z m339 -3 c11 0 17 -8 17 -25 0 -30 20 -33 27 -5 3 11 12 20 20 20 33
0 153 -23 153 -30 0 -7 -214 -73 -275 -85 l-30 -6 0 72 0 71 35 -6 c19 -3 43
-6 53 -6z"/>
<path d="M7028 3912 c-7 -9 -35 -35 -63 -57 -27 -22 -93 -82 -146 -132 -53
-51 -101 -93 -106 -93 -6 0 -16 -6 -22 -14 -9 -10 -8 -16 3 -26 9 -6 19 -10
23 -7 4 3 98 15 208 27 110 13 205 27 212 32 12 10 -6 91 -49 215 -23 67 -40
82 -60 55z m54 -157 c21 -54 36 -100 35 -101 -2 -1 -307 -10 -307 -9 0 0 27
27 61 60 52 52 59 56 54 33 -7 -29 10 -72 26 -63 12 8 12 78 -1 91 -7 7 -1 19
18 37 l29 28 -1 -43 c-1 -64 11 -100 32 -96 22 5 20 74 -2 120 -16 31 -13 52
7 45 7 -2 28 -48 49 -102z"/>
<path d="M7292 3523 c-7 -7 -23 -13 -36 -13 -13 0 -102 -13 -197 -29 -155 -27
-219 -39 -296 -56 -29 -7 -32 -45 -3 -45 12 0 17 -5 14 -14 -7 -18 22 -37 214
-141 119 -64 162 -92 162 -105 0 -28 20 -35 40 -14 34 36 120 299 120 366 0
13 4 28 9 34 6 5 5 13 -3 20 -8 8 -15 7 -24 -3z m-12 -43 c0 -11 -108 -301
-114 -308 -2 -2 -23 8 -45 22 -23 15 -107 64 -188 111 -81 47 -143 85 -138 85
6 0 75 14 155 30 80 16 148 30 152 30 4 0 -11 -30 -33 -67 -42 -73 -47 -93
-24 -93 19 0 67 83 74 128 5 30 11 37 40 44 18 5 36 6 39 3 3 -3 -11 -39 -31
-81 -40 -80 -46 -114 -22 -114 18 0 48 64 72 152 14 51 23 62 56 67 4 0 7 -3
7 -9z"/>
<path d="M6330 3335 c0 -8 9 -20 20 -27 12 -7 46 -60 76 -118 95 -179 216
-355 341 -496 35 -39 63 -79 63 -88 0 -30 35 -16 68 27 18 23 48 72 65 109 18
37 38 67 45 67 21 1 -4 39 -77 115 -86 89 -242 214 -415 332 -133 90 -186 113
-186 79z m207 -148 c53 -35 61 -45 57 -64 -5 -17 -2 -23 9 -23 9 0 19 5 22 10
4 6 25 -3 51 -22 44 -32 45 -32 22 -44 -25 -13 -68 -66 -68 -84 0 -6 -4 -9 -9
-6 -9 6 -124 194 -155 255 -20 38 -20 38 71 -22z m236 -171 l29 -23 -52 -52
c-49 -49 -60 -79 -33 -88 7 -3 32 25 54 61 l42 65 28 -20 c16 -11 31 -24 34
-29 3 -5 -12 -32 -34 -60 -46 -58 -58 -87 -42 -103 14 -14 23 -6 70 72 l38 61
37 -33 38 -32 -51 -75 c-84 -127 -77 -122 -118 -75 -19 22 -66 84 -105 137
l-69 97 40 51 c23 29 41 56 41 61 0 16 24 9 53 -15z"/>
</g>
</svg>
